# xmcd
#
# Track frame offsets: 
#        150
#        27775
#        56620
#        79900
#        105567
#        116047
#        142370
#
# Disc length: 2096 seconds
#
# Revision: 1
# Processed by: cddbd v1.5.2PL0 Copyright (c) Steve Scherf et al.
# Submitted via: ExactAudioCopy v1.3
#
DISCID=5f082e07
DTITLE=Isao Suzuki - Self-Portrait
DYEAR=1980
DGENRE=Jazz
TTITLE0=My Music Starts, my Life Begins
TTITLE1=Vision - Days to Come
TTITLE2=The Gentle Rain
TTITLE3=Loving Lash
TTITLE4=China on my Mind
TTITLE5=Dialogue in Myself
TTITLE6=In a Sentimental Mood
EXTD=YEAR: 1980
EXTT0=
EXTT1=
EXTT2=
EXTT3=
EXTT4=
EXTT5=
EXTT6=
PLAYORDER=
